<svg width="121" height="120" viewBox="0 0 121 120" fill="none" xmlns="http://www.w3.org/2000/svg">
<g clip-path="url(#clip0_1_2)">
<path d="M105.521 102.993H95.3391C95.6957 102.515 95.991 101.995 96.2183 101.444C96.5448 100.632 96.708 99.7633 96.6984 98.8881C96.6888 98.0129 96.5065 97.1484 96.1622 96.3437C95.8178 95.539 95.3181 94.8101 94.6916 94.1989C94.0651 93.5876 93.3241 93.1059 92.5111 92.7814L92.2913 92.7016C80.6649 88.7032 71.0432 80.3505 65.4517 69.4018C66.1261 67.8005 66.3772 66.0526 66.1811 64.3261L65.7215 47.8605L94.4996 25.34C95.7564 24.2738 96.5506 22.7618 96.715 21.122C96.8793 19.4822 96.4012 17.8425 95.381 16.5481C94.3609 15.2537 92.8782 14.4054 91.2453 14.1818C89.6123 13.9581 87.9564 14.3763 86.6257 15.3487L71.0975 26.6189C70.2517 24.9565 69.0551 23.4974 67.5904 22.3424C66.1257 21.1874 64.4275 20.3641 62.6135 19.9292C60.7995 19.4943 58.9128 19.4585 57.0835 19.8238C55.2542 20.1892 53.526 20.947 52.0183 22.0453C50.5105 23.1436 49.2592 24.556 48.3507 26.185C47.4421 27.814 46.8978 29.6209 46.7557 31.4807C46.6135 33.3405 46.8766 35.209 47.5271 36.9571C48.1775 38.7053 49.1998 40.2913 50.5231 41.6059L50.1835 41.8557C47.8923 43.4665 46.0217 45.6045 44.7296 48.0893C43.4376 50.574 42.7617 53.3328 42.759 56.1333V66.7142L29.8489 72.619H29.7588C28.7559 73.1652 27.9091 73.9587 27.2988 74.9239C26.6885 75.8891 26.3349 76.994 26.2715 78.1342L25.1525 98.9262C25.0723 100.366 25.4537 101.794 26.2415 103.003H16.5189C16.1512 103.045 15.812 103.221 15.5658 103.498C15.3195 103.774 15.1835 104.131 15.1835 104.501C15.1835 104.872 15.3195 105.229 15.5658 105.505C15.812 105.781 16.1512 105.958 16.5189 106H105.521C105.889 105.958 106.228 105.781 106.474 105.505C106.721 105.229 106.857 104.872 106.857 104.501C106.857 104.131 106.721 103.774 106.474 103.498C106.228 103.221 105.889 103.045 105.521 103.003V102.993ZM49.6639 32.3539C49.6427 30.066 50.4161 27.8418 51.8524 26.0606C53.2886 24.2794 55.2986 23.0519 57.5392 22.5873C59.7798 22.1227 62.1123 22.45 64.1384 23.5132C66.1646 24.5765 67.7589 26.3098 68.6494 28.4174L53.0312 39.7577C51.9745 38.8338 51.1261 37.6961 50.5421 36.4197C49.9581 35.1434 49.652 33.7575 49.6439 32.3539H49.6639ZM36.4239 81.5612L35.4247 99.5455C35.3952 100.025 35.2713 100.494 35.0605 100.926C34.8496 101.358 34.5559 101.744 34.1959 102.062C33.8359 102.38 33.4166 102.624 32.9622 102.781C32.5078 102.937 32.0271 103.002 31.5475 102.973C31.0679 102.943 30.5988 102.819 30.167 102.609C29.7352 102.398 29.3491 102.104 29.0309 101.744C28.7126 101.384 28.4684 100.965 28.3122 100.51C28.1559 100.056 28.0907 99.5755 28.1202 99.096L29.2292 78.304C29.264 77.6877 29.4535 77.0901 29.7801 76.5662C30.1066 76.0424 30.5599 75.6092 31.0979 75.3066L44.8074 69.0423H44.8975H44.9672H45.0273L45.0773 68.9923H45.1373L45.1873 68.9422V68.8822C45.1915 68.8659 45.1915 68.8486 45.1873 68.8322L45.2371 68.7725V68.7125V68.6525C45.2422 68.6294 45.2422 68.6055 45.2371 68.5825V68.5027V68.4427V68.3627C45.2371 68.3627 45.2371 68.3626 45.2371 68.3027C45.2371 68.2427 45.2371 68.3028 45.2371 68.2229C45.2371 68.153 45.2371 68.1528 45.2371 68.0829C45.2371 68.0829 45.2371 68.0231 45.2371 67.9931V56.4031C45.2405 54.0825 45.8016 51.7967 46.8728 49.738C47.9439 47.6794 49.494 45.908 51.3925 44.5733L53.261 43.2146L70.7277 30.5357L70.7877 30.4857L87.9048 18.0566C88.6004 17.5001 89.4887 17.2428 90.3741 17.3411C91.2595 17.4395 92.0695 17.8854 92.626 18.581C93.1826 19.2766 93.4399 20.1647 93.3416 21.0501C93.2432 21.9354 92.7972 22.7455 92.1015 23.302L62.7337 46.282H62.674L62.624 46.3318L62.574 46.3918L62.5239 46.4618C62.5239 46.4618 62.5239 46.5118 62.5239 46.5418V46.6116V46.6816C62.5239 46.6816 62.5239 46.7316 62.5239 46.7516C62.5239 46.7716 62.5239 46.8014 62.5239 46.8214C62.5252 46.8446 62.5252 46.8681 62.5239 46.8914C62.5239 46.8914 62.5239 46.9414 62.5239 46.9714C62.5239 47.0013 62.5239 46.9714 62.5239 47.0414V47.1911L63.0136 64.4762C63.009 64.5227 63.009 64.5694 63.0136 64.6159C63.2027 66.2687 62.8228 67.9365 61.9363 69.3442C61.0498 70.752 59.7097 71.8155 58.1374 72.3592H58.0174L52.6616 74.3575L37.2231 80.1725C36.9692 80.3028 36.7575 80.5023 36.6125 80.7481C36.4675 80.994 36.3951 81.2759 36.4039 81.5612H36.4239ZM37.4232 102.993C38.072 102.007 38.4445 100.865 38.5022 99.6855L39.4116 82.7003L52.6913 77.7047C58.8049 89.2718 68.8786 98.2519 81.0699 103.003L37.4232 102.993ZM93.4704 100.325C93.1998 101.004 92.7313 101.587 92.1255 101.997C91.5196 102.407 90.8045 102.625 90.0731 102.623C89.6046 102.622 89.1403 102.534 88.704 102.363C88.5841 102.363 88.2844 102.223 87.8348 102.093C80.9974 100.276 74.6042 97.0792 69.0485 92.6994C63.4928 88.3196 58.892 82.8494 55.5293 76.6255L59.3164 75.1968C60.9842 74.629 62.4778 73.6414 63.6532 72.3292C69.7272 83.2382 79.6212 91.5157 91.4319 95.569C92.326 95.9366 93.0383 96.6434 93.4128 97.5346C93.7873 98.4258 93.7936 99.429 93.4304 100.325H93.4704Z" fill="#231F20"/>
</g>
<defs>
<clipPath id="clip0_1_2">
<rect width="92" height="92" fill="white" transform="translate(15 14)"/>
</clipPath>
</defs>
</svg>
