<svg width="121" height="120" viewBox="0 0 121 120" fill="none" xmlns="http://www.w3.org/2000/svg">
<g clip-path="url(#clip0_1_48)">
<path d="M76.5901 46.151V53.641C76.6178 53.9543 76.7617 54.2458 76.9936 54.4581C77.2255 54.6705 77.5285 54.7886 77.8429 54.7886C78.1573 54.7886 78.4603 54.6705 78.6922 54.4581C78.9241 54.2458 79.0682 53.9543 79.0959 53.641V46.151C79.0907 43.2384 77.9311 40.4464 75.8712 38.3877C73.8114 36.3291 71.0195 35.1716 68.1077 35.169H67.903C68.8341 34.2937 69.5744 33.2355 70.0777 32.0607C70.581 30.886 70.8364 29.62 70.828 28.3419V24.275C70.8684 23.0285 70.6577 21.7864 70.2086 20.6229C69.7596 19.4594 69.0814 18.3983 68.2141 17.5023C67.3469 16.6062 66.3084 15.8935 65.1604 15.4069C64.0124 14.9203 62.7781 14.6697 61.5313 14.6697C60.2845 14.6697 59.0505 14.9203 57.9025 15.4069C56.7545 15.8935 55.716 16.6062 54.8487 17.5023C53.9815 18.3983 53.303 19.4594 52.854 20.6229C52.405 21.7864 52.1945 23.0285 52.2349 24.275V28.3419C52.2253 29.6202 52.4801 30.8867 52.9835 32.0617C53.4869 33.2366 54.2279 34.2944 55.1599 35.169H53.824C50.9131 35.1716 48.1224 36.3293 46.0641 38.3882C44.0058 40.4471 42.8482 43.2393 42.8456 46.151V53.641C42.8456 53.972 42.9772 54.2898 43.2112 54.5239C43.4453 54.758 43.7626 54.8896 44.0936 54.8896C44.4246 54.8896 44.7422 54.758 44.9763 54.5239C45.2103 54.2898 45.3416 53.972 45.3416 53.641V46.151C45.3442 43.9023 46.2391 41.7465 47.8296 40.1573C49.4201 38.5682 51.576 37.6758 53.824 37.6758H68.0394C69.1583 37.6668 70.2679 37.8793 71.3043 38.3011C72.3407 38.7228 73.2833 39.3453 74.0781 40.1331C74.8729 40.9208 75.5039 41.858 75.935 42.8908C76.3661 43.9236 76.5889 45.0318 76.5901 46.151ZM54.7697 28.3715V24.3041C54.6745 23.3548 54.7793 22.3964 55.0773 21.4901C55.3752 20.5838 55.8597 19.7499 56.4995 19.0424C57.1393 18.3349 57.9203 17.7693 58.792 17.3823C59.6638 16.9952 60.6069 16.7956 61.5606 16.7956C62.5143 16.7956 63.4574 16.9952 64.3292 17.3823C65.2009 17.7693 65.9821 18.3349 66.6219 19.0424C67.2618 19.7499 67.7463 20.5838 68.0442 21.4901C68.3421 22.3964 68.4467 23.3548 68.3515 24.3041V28.3715C68.4467 29.3207 68.3421 30.2791 68.0442 31.1854C67.7463 32.0917 67.2618 32.9257 66.6219 33.6332C65.9821 34.3407 65.2009 34.9062 64.3292 35.2933C63.4574 35.6803 62.5143 35.88 61.5606 35.88C60.6069 35.88 59.6638 35.6803 58.792 35.2933C57.9203 34.9062 57.1393 34.3407 56.4995 33.6332C55.8597 32.9257 55.3752 32.0917 55.0773 31.1854C54.7793 30.2791 54.6745 29.3207 54.7697 28.3715Z" fill="#231F20"/>
<path d="M35.7186 59.181C35.1844 58.3487 34.446 57.667 33.5739 57.2009C32.7018 56.7348 31.7249 56.4999 30.7363 56.5185L25.0035 32.5557C24.7164 31.33 23.9838 30.2547 22.9483 29.5393C21.9128 28.8239 20.6484 28.5196 19.4009 28.685C18.1533 28.8504 17.012 29.4736 16.1986 30.4341C15.3852 31.3947 14.958 32.6238 15.0001 33.882L16.1603 71.8598C16.2483 73.5452 16.6825 75.1942 17.4357 76.7044C18.1888 78.2145 19.2448 79.5535 20.538 80.6374L40.3693 97.2174L41.7342 103.81C41.7924 104.095 41.9611 104.344 42.2034 104.504C42.4457 104.665 42.7416 104.722 43.026 104.664C43.3105 104.605 43.5602 104.437 43.7201 104.194C43.8801 103.952 43.9373 103.656 43.8792 103.372L42.4459 96.4078C42.3917 96.1657 42.2621 95.947 42.0756 95.7835L21.9419 78.9502C20.8779 78.0618 20.0091 76.9627 19.3899 75.7224C18.7708 74.4821 18.4148 73.1272 18.3442 71.7426L17.1938 33.7748C17.1739 33.0627 17.4187 32.3685 17.881 31.8266C18.3433 31.2847 18.9901 30.9336 19.6963 30.8413C20.4025 30.7491 21.1179 30.9221 21.7039 31.3271C22.2898 31.732 22.7045 32.34 22.8681 33.0333L28.5816 56.9475C27.4343 57.4311 26.471 58.2683 25.8321 59.3372C25.4227 60.0338 25.162 60.8074 25.0663 61.6097C24.9707 62.412 25.0421 63.2255 25.2763 63.9989C26.9533 69.5288 30.4438 77.0875 37.5027 81.7299C37.7458 81.889 38.0422 81.9446 38.3265 81.8851C38.6108 81.8257 38.8599 81.6559 39.019 81.4127C39.178 81.1696 39.2338 80.8733 39.1744 80.5889C39.115 80.3044 38.945 80.055 38.7019 79.896C32.1987 75.6144 28.9521 68.5436 27.3726 63.316C27.2196 62.8314 27.1717 62.32 27.2322 61.8154C27.2927 61.3108 27.4602 60.8247 27.7235 60.3901C28.0367 59.8578 28.4813 59.4151 29.0146 59.1038C29.5479 58.7926 30.1523 58.6236 30.7696 58.6129C31.387 58.6021 31.9968 58.75 32.5406 59.0424C33.0845 59.3349 33.5442 59.7619 33.8757 60.283C38.8287 67.8902 48.1788 76.7751 53.317 81.3979C55.1402 83.0364 57.2169 88.4201 55.267 91.4533C55.1097 91.6954 55.0538 91.9899 55.111 92.2728L56.8368 100.631C56.8963 100.915 57.0663 101.165 57.3095 101.324C57.5527 101.483 57.8492 101.539 58.1336 101.48C58.4181 101.42 58.6672 101.25 58.8263 101.007C58.9854 100.763 59.0412 100.467 58.9817 100.182L57.3438 92.2433C59.518 88.2641 57.4119 82.12 54.7892 79.7598C49.729 75.3124 40.5351 66.5835 35.7186 59.181Z" fill="#231F20"/>
<path d="M106.327 71.7817L107 33.8134C107.031 32.5518 106.59 31.3243 105.764 30.3703C104.938 29.4163 103.787 28.8044 102.534 28.6545C101.281 28.5046 100.018 28.8277 98.9901 29.5598C97.9625 30.2919 97.2448 31.3806 96.977 32.6138L91.5563 56.6451C90.5672 56.6444 89.5941 56.8947 88.7279 57.3723C87.8618 57.8499 87.1307 58.5393 86.6032 59.3762C81.894 66.8177 72.8071 75.6731 67.8054 80.296C65.2119 82.6854 63.184 88.8491 65.3972 92.7991L63.8664 100.758C63.812 101.043 63.8726 101.339 64.0352 101.58C64.1977 101.821 64.4491 101.989 64.7343 102.045C64.8752 102.074 65.0202 102.073 65.1611 102.045C65.302 102.016 65.4359 101.96 65.5548 101.879C65.6737 101.798 65.7754 101.694 65.8538 101.574C65.9322 101.453 65.9857 101.319 66.0113 101.177L67.6397 92.7991C67.6885 92.518 67.6291 92.2292 67.4738 91.99C65.4751 88.9763 67.4739 83.5729 69.2972 81.9051C74.3769 77.2139 83.6197 68.2023 88.4556 60.5463C88.8425 59.9257 89.4082 59.4368 90.0783 59.1443C90.7484 58.8518 91.4915 58.7693 92.2094 58.9076C92.7042 59.0043 93.1734 59.2032 93.5874 59.491C94.0014 59.7787 94.3509 60.149 94.6141 60.5791C94.8772 61.0093 95.0481 61.4895 95.1158 61.9892C95.1836 62.4889 95.1466 62.9975 95.0075 63.4822C93.4963 68.6805 90.3374 75.7902 83.8732 80.1498C83.7535 80.2311 83.6509 80.335 83.5714 80.456C83.4919 80.5769 83.4372 80.7124 83.41 80.8546C83.3828 80.9968 83.3838 81.1428 83.4131 81.2846C83.4424 81.4264 83.4994 81.5611 83.5807 81.6808C83.662 81.8006 83.7661 81.9032 83.887 81.9827C84.008 82.0622 84.1434 82.117 84.2855 82.1442C84.4276 82.1713 84.5737 82.1706 84.7154 82.1413C84.8571 82.112 84.9918 82.055 85.1115 81.9737C92.1119 77.2435 95.4952 69.6359 97.1137 64.0865C97.5066 62.7036 97.3768 61.2248 96.7492 59.9315C96.1216 58.6381 95.0402 57.6208 93.7109 57.0742L99.122 33.0919C99.3373 32.4558 99.7649 31.9132 100.333 31.5551C100.901 31.1971 101.575 31.0451 102.241 31.1251C102.908 31.2052 103.527 31.5123 103.994 31.9947C104.461 32.4771 104.748 33.1058 104.806 33.7748L104.134 71.7231C104.083 73.1117 103.746 74.475 103.144 75.7271C102.542 76.9792 101.687 78.093 100.633 78.9988L80.7143 96.0859C80.5187 96.2402 80.3895 96.4637 80.3534 96.7102L78.9983 103.693C78.9438 103.979 79.0045 104.275 79.167 104.516C79.3296 104.757 79.5807 104.924 79.8659 104.981C80.1512 105.033 80.4457 104.971 80.6862 104.809C80.9266 104.647 81.094 104.397 81.153 104.113L82.4303 97.5003L102.057 80.6665C103.342 79.5599 104.385 78.1995 105.12 76.6705C105.855 75.1415 106.266 73.4771 106.327 71.7817Z" fill="#231F20"/>
</g>
<defs>
<clipPath id="clip0_1_48">
<rect width="92" height="90" fill="white" transform="translate(15 15)"/>
</clipPath>
</defs>
</svg>
