<svg width="121" height="120" viewBox="0 0 121 120" fill="none" xmlns="http://www.w3.org/2000/svg">
<g clip-path="url(#clip0_1_25)">
<path d="M105.568 72.4108C104.568 71.282 103.164 70.5972 101.663 70.5067C100.162 70.4162 98.6864 70.9273 97.5597 71.9279L82.9089 85.0148L77.8427 80.9874C78.1984 80.9874 78.5443 81.0358 78.9 81.0358C81.2038 81.0392 83.469 80.4412 85.4735 79.3003C87.478 78.1594 89.1531 76.5146 90.3344 74.5275C91.5158 72.5404 92.1628 70.2791 92.2123 67.9651C92.2617 65.651 91.7119 63.3638 90.6165 61.3276C89.5212 59.2914 87.9179 57.576 85.964 56.3497C84.0101 55.1234 81.7726 54.4283 79.4708 54.3325C77.1689 54.2366 74.8819 54.7433 72.8337 55.8029C70.7854 56.8625 69.0465 58.4385 67.7871 60.3766V57.8751C67.8116 54.3531 67.0077 50.8754 65.4413 47.7245C63.7705 44.1768 60.8486 41.3785 57.2413 39.8722C59.7662 38.2974 61.7114 35.939 62.7826 33.1539C63.8537 30.3688 63.9923 27.3089 63.1773 24.4376C62.3624 21.5663 60.6383 19.04 58.2662 17.2413C55.8941 15.4427 53.0031 14.4698 50.0312 14.4698C47.0593 14.4698 44.1684 15.4427 41.7963 17.2413C39.4241 19.04 37.6999 21.5663 36.8849 24.4376C36.0699 27.3089 36.2085 30.3688 37.2797 33.1539C38.3508 35.939 40.2963 38.2974 42.8212 39.8722C39.2119 41.3754 36.2887 44.1746 34.621 47.7245C33.049 50.8734 32.2448 54.3525 32.2751 57.8751V64.4911H16.1248C15.8367 64.4911 15.5604 64.6061 15.3567 64.8108C15.1529 65.0155 15.0384 65.2931 15.0384 65.5826C15.0384 65.872 15.1529 66.1494 15.3567 66.3541C15.5604 66.5588 15.8367 66.6738 16.1248 66.6738H32.2751V104.399C32.2738 104.543 32.3013 104.685 32.3554 104.818C32.4095 104.951 32.4894 105.072 32.5906 105.174C32.6917 105.275 32.8119 105.355 32.9443 105.41C33.0766 105.464 33.2185 105.492 33.3616 105.49H103.539C103.683 105.492 103.825 105.464 103.958 105.41C104.091 105.356 104.212 105.276 104.313 105.174C104.415 105.073 104.496 104.952 104.551 104.819C104.607 104.686 104.635 104.543 104.635 104.399V80.9101L105.145 80.4562C106.26 79.4441 106.931 78.0291 107.01 76.5212C107.089 75.0133 106.571 73.5353 105.568 72.4108ZM78.9 56.5423C80.6256 56.5369 82.3289 56.935 83.875 57.7051C85.421 58.4751 86.7676 59.5958 87.8081 60.9789C88.8486 62.3619 89.5544 63.9694 89.8699 65.6738C90.1854 67.3783 90.1019 69.1329 89.6259 70.7993C89.1498 72.4657 88.2944 73.9981 87.1272 75.275C85.9601 76.552 84.5133 77.5387 82.9012 78.1569C81.289 78.7751 79.5556 79.0078 77.8384 78.837C76.1212 78.6661 74.4672 78.0964 73.0071 77.1725L72.4591 76.7377C72.361 76.661 72.2506 76.6023 72.1324 76.5639C70.2931 75.1455 68.9413 73.1846 68.2666 70.9559C67.5919 68.7272 67.6281 66.3423 68.3699 64.1352C69.1117 61.9282 70.5221 60.0096 72.4035 58.648C74.2848 57.2865 76.5431 56.5501 78.8617 56.5423H78.9ZM38.5238 28.2533C38.5238 25.961 39.2005 23.7203 40.4681 21.8144C41.7357 19.9084 43.5374 18.423 45.6454 17.5458C47.7533 16.6685 50.0729 16.439 52.3107 16.8862C54.5484 17.3334 56.6038 18.4371 58.2172 20.0579C59.8305 21.6788 60.9292 23.744 61.3744 25.9922C61.8195 28.2405 61.591 30.5709 60.7179 32.6886C59.8448 34.8064 58.3662 36.6166 56.4691 37.8901C54.572 39.1636 52.3415 39.8432 50.0599 39.8432C48.5417 39.8445 47.0384 39.5448 45.6357 38.9611C44.2331 38.3774 42.959 37.5212 41.8864 36.4418C40.8138 35.3624 39.9638 34.0809 39.3852 32.6707C38.8065 31.2606 38.5106 29.7496 38.5144 28.2243L38.5238 28.2533ZM102.415 103.337H34.4095V91.283H72.4687L79.602 96.9429C80.6459 97.7766 81.9491 98.2132 83.2821 98.1761C84.6152 98.139 85.8924 97.6306 86.8888 96.7401L102.405 82.8804L102.415 103.337ZM103.664 78.853L102.818 79.6061L85.5141 95.0593C84.8896 95.5899 84.1041 95.8915 83.2866 95.9143C82.469 95.9371 81.668 95.6799 81.0151 95.185L73.6032 89.303H73.5359H73.4685H73.4108H73.3629H73.3052H34.4095V79.3743C35.4102 80.1639 36.6459 80.5925 37.9183 80.5913C38.1008 80.6009 38.2838 80.6009 38.4663 80.5913C39.8875 80.4178 41.195 79.7239 42.1387 78.6422C43.0823 77.5605 43.5956 76.1672 43.5805 74.7289V55.4124C43.5805 55.123 43.4662 54.8453 43.2624 54.6406C43.0587 54.436 42.7824 54.3209 42.4943 54.3209C42.2062 54.3209 41.9298 54.436 41.7261 54.6406C41.5224 54.8453 41.4078 55.123 41.4078 55.4124V74.7289C41.4272 75.6262 41.1162 76.4991 40.5343 77.18C39.9523 77.8609 39.1406 78.3017 38.2548 78.4182C37.7669 78.4694 37.2736 78.4158 36.8079 78.2609C36.3422 78.106 35.9146 77.8535 35.5534 77.52C35.1943 77.19 34.9071 76.7887 34.7101 76.3415C34.5132 75.8943 34.4109 75.411 34.4095 74.922V58.1455C34.3832 54.9726 35.1045 51.8384 36.5148 48.9992C38.6489 44.8172 41.7636 42.3061 45.7627 41.5431C48.5223 42.4576 51.5014 42.4576 54.261 41.5431C58.2602 42.3061 61.3654 44.8172 63.5092 48.9992C64.9161 51.8392 65.6342 54.9733 65.6049 58.1455V74.922C65.6046 75.4128 65.502 75.8981 65.3037 76.3467C65.1055 76.7953 64.8159 77.1973 64.4536 77.5266C64.0914 77.856 63.6646 78.1054 63.2006 78.259C62.7366 78.4126 62.2457 78.4667 61.7595 78.4182C60.8755 78.2996 60.0659 77.8576 59.486 77.1769C58.906 76.4962 58.5962 75.6247 58.6159 74.7289V55.4124C58.5904 55.1394 58.4642 54.8858 58.2625 54.7012C58.0606 54.5167 57.7977 54.4143 57.5248 54.4143C57.2519 54.4143 56.9887 54.5167 56.7869 54.7012C56.5851 54.8858 56.4592 55.1394 56.4337 55.4124V74.7289C56.4187 76.1687 56.9333 77.5631 57.8789 78.645C58.8246 79.7269 60.1347 80.42 61.5577 80.5913C61.737 80.6009 61.9165 80.6009 62.0958 80.5913C63.5477 80.5937 64.9454 80.0376 66.002 79.0371C67.0585 78.0367 67.694 76.668 67.7775 75.2118C68.8068 76.7902 70.1524 78.1355 71.7285 79.1619L82.3032 87.5357C82.4986 87.7 82.7454 87.7899 83.0002 87.7899C83.255 87.7899 83.5018 87.7 83.6973 87.5357L99.0306 73.8498C99.7241 73.23 100.634 72.9122 101.561 72.9666C102.02 72.9935 102.469 73.111 102.882 73.3122C103.296 73.5135 103.666 73.7947 103.972 74.1396C104.277 74.4846 104.512 74.8867 104.663 75.3229C104.814 75.7591 104.878 76.2208 104.851 76.6818C104.824 77.1428 104.707 77.5939 104.507 78.0095C104.307 78.4251 104.027 78.7972 103.683 79.1041L103.664 78.853Z" fill="#231F20"/>
</g>
<defs>
<clipPath id="clip0_1_25">
<rect width="92" height="91" fill="white" transform="translate(15 14.5)"/>
</clipPath>
</defs>
</svg>
