<svg width="121" height="120" viewBox="0 0 121 120" fill="none" xmlns="http://www.w3.org/2000/svg">
<g clip-path="url(#clip0_1_32)">
<path d="M78.7814 62.7177C78.7772 61.2609 78.2818 59.848 77.3752 58.7075C76.4686 57.5671 75.2036 56.7659 73.7852 56.4332V48.1003C78.7814 47.261 82.6485 42.3254 82.6485 36.3905C82.6485 29.8662 78.002 24.5507 72.2863 24.5507C66.5707 24.5507 61.9243 29.8662 61.9243 36.3905C61.9243 42.3254 65.7815 47.261 70.7777 48.1003V56.4332C69.3601 56.7675 68.0962 57.5692 67.1898 58.7092C66.2835 59.8493 65.7875 61.2614 65.7815 62.7177V91.8323C65.7815 93.5547 66.4658 95.2066 67.6839 96.4245C68.9019 97.6424 70.554 98.3267 72.2765 98.3267C73.9991 98.3267 75.6512 97.6424 76.8692 96.4245C78.0873 95.2066 78.7716 93.5547 78.7716 91.8323L78.7814 62.7177ZM64.952 36.3905C64.952 31.5148 68.2594 27.5581 72.3163 27.5581C76.3732 27.5581 79.6708 31.5547 79.6708 36.3905C79.6708 41.2263 76.3732 45.2229 72.3163 45.2229C68.2594 45.2229 64.952 41.2563 64.952 36.3905ZM75.7739 91.8323C75.7992 92.3026 75.7281 92.7731 75.5655 93.2151C75.403 93.6571 75.1521 94.0615 74.8281 94.4033C74.5041 94.7451 74.1139 95.0173 73.6812 95.2034C73.2485 95.3894 72.7824 95.4854 72.3114 95.4854C71.8404 95.4854 71.3743 95.3894 70.9416 95.2034C70.5089 95.0173 70.1188 94.7451 69.7948 94.4033C69.4708 94.0615 69.2197 93.6571 69.0571 93.2151C68.8945 92.7731 68.8237 92.3026 68.849 91.8323V62.7177C68.8237 62.2474 68.8945 61.7769 69.0571 61.3349C69.2197 60.8929 69.4708 60.4886 69.7948 60.1467C70.1188 59.8049 70.5089 59.5327 70.9416 59.3466C71.3743 59.1606 71.8404 59.0647 72.3114 59.0647C72.7824 59.0647 73.2485 59.1606 73.6812 59.3466C74.1139 59.5327 74.5041 59.8049 74.8281 60.1467C75.1521 60.4886 75.403 60.8929 75.5655 61.3349C75.7281 61.7769 75.7992 62.2474 75.7739 62.7177V91.8323Z" fill="#231F20"/>
<path d="M54.53 25.1303C54.1316 25.1329 53.7504 25.2931 53.4696 25.5757C53.1888 25.8584 53.0312 26.2406 53.0312 26.639V38.4388C53.0285 40.1286 52.4453 41.7662 51.3794 43.0776C50.3134 44.3889 48.8293 45.2944 47.1755 45.6425V26.659C47.2 26.4477 47.1794 26.2335 47.1153 26.0306C47.0511 25.8278 46.9448 25.6409 46.8032 25.482C46.6617 25.3232 46.488 25.1961 46.2939 25.1091C46.0997 25.022 45.8894 24.9769 45.6767 24.9769C45.4639 24.9769 45.2536 25.022 45.0595 25.1091C44.8653 25.1961 44.6916 25.3232 44.5501 25.482C44.4085 25.6409 44.3022 25.8278 44.2381 26.0306C44.1739 26.2335 44.1534 26.4477 44.1778 26.659V45.6425C42.524 45.2944 41.0399 44.3889 39.974 43.0776C38.908 41.7662 38.3248 40.1286 38.3222 38.4388V26.659C38.3222 26.2615 38.1644 25.8804 37.8833 25.5994C37.6022 25.3183 37.2208 25.1603 36.8233 25.1603C36.4258 25.1603 36.0446 25.3183 35.7636 25.5994C35.4825 25.8804 35.3244 26.2615 35.3244 26.659V38.4588C35.3264 40.9448 36.2214 43.3475 37.8464 45.229C39.4714 47.1106 41.7183 48.3459 44.1778 48.7099V57.0325C42.7602 57.3668 41.4963 58.1688 40.59 59.3088C39.6836 60.4489 39.1876 61.8607 39.1816 63.3171V92.4319C39.2473 94.1037 39.9578 95.685 41.164 96.8446C42.3702 98.0041 43.9785 98.6518 45.6518 98.6518C47.325 98.6518 48.9331 98.0041 50.1393 96.8446C51.3455 95.685 52.056 94.1037 52.1217 92.4319V63.3171C52.1175 61.8602 51.6222 60.4475 50.7156 59.3071C49.8089 58.1667 48.544 57.3652 47.1255 57.0325V48.7099C49.5868 48.348 51.8362 47.1135 53.4632 45.2317C55.0902 43.3499 55.9866 40.9463 55.9889 38.4588V26.659C55.9918 26.2647 55.8411 25.8847 55.5688 25.5994C55.2965 25.3141 54.9241 25.1459 54.53 25.1303ZM49.134 63.2971V92.4119C49.1593 92.8822 49.0885 93.3527 48.9259 93.7947C48.7633 94.2367 48.5124 94.6408 48.1884 94.9826C47.8644 95.3245 47.474 95.5969 47.0413 95.783C46.6087 95.969 46.1428 96.065 45.6718 96.065C45.2008 96.065 44.7347 95.969 44.302 95.783C43.8693 95.5969 43.4789 95.3245 43.1549 94.9826C42.8309 94.6408 42.58 94.2367 42.4174 93.7947C42.2548 93.3527 42.1841 92.8822 42.2093 92.4119V63.2971C42.257 62.411 42.6425 61.5772 43.2866 60.9668C43.9307 60.3565 44.7844 60.0162 45.6718 60.0162C46.5592 60.0162 47.4126 60.3565 48.0567 60.9668C48.7008 61.5772 49.0864 62.411 49.134 63.2971Z" fill="#231F20"/>
<path d="M105.501 76.9253C105.103 76.928 104.722 77.0881 104.441 77.3708C104.16 77.6534 104.002 78.0356 104.002 78.434V102.993H79.401C79.0333 103.035 78.6941 103.211 78.4479 103.488C78.2016 103.764 78.0656 104.121 78.0656 104.491C78.0656 104.861 78.2016 105.219 78.4479 105.495C78.6941 105.771 79.0333 105.947 79.401 105.99H105.471C105.87 105.99 106.252 105.832 106.535 105.552C106.817 105.271 106.977 104.89 106.98 104.491V78.424C106.975 78.0316 106.818 77.6563 106.542 77.3769C106.267 77.0974 105.894 76.9356 105.501 76.9253Z" fill="#231F20"/>
<path d="M105.501 14.0001H79.401C79.0333 14.0426 78.6941 14.2187 78.4479 14.495C78.2016 14.7714 78.0656 15.1287 78.0656 15.4988C78.0656 15.8689 78.2016 16.226 78.4479 16.5023C78.6941 16.7786 79.0333 16.955 79.401 16.9975H103.972V41.556C103.948 41.7673 103.968 41.9815 104.033 42.1843C104.097 42.3872 104.203 42.5743 104.345 42.7332C104.486 42.892 104.66 43.0191 104.854 43.1061C105.048 43.1932 105.258 43.2381 105.471 43.2381C105.684 43.2381 105.894 43.1932 106.088 43.1061C106.283 43.0191 106.456 42.892 106.598 42.7332C106.739 42.5743 106.846 42.3872 106.91 42.1843C106.974 41.9815 106.995 41.7673 106.97 41.556V15.4988C106.965 15.108 106.81 14.7342 106.536 14.455C106.263 14.1759 105.892 14.0129 105.501 14.0001Z" fill="#231F20"/>
<path d="M16.4989 43.0747C16.8983 43.0721 17.2804 42.9124 17.5628 42.63C17.8452 42.3476 18.0052 41.9653 18.0078 41.566V17.0075H42.5689C42.9366 16.965 43.2761 16.7887 43.5223 16.5123C43.7685 16.236 43.9046 15.8789 43.9046 15.5088C43.9046 15.1387 43.7685 14.7814 43.5223 14.505C43.2761 14.2287 42.9366 14.0526 42.5689 14.0101H16.4989C16.1005 14.0127 15.7193 14.1729 15.4384 14.4555C15.1576 14.7382 15.0001 15.1204 15.0001 15.5188V41.576C15.0027 41.9726 15.1613 42.3524 15.4419 42.6329C15.7224 42.9134 16.1022 43.0721 16.4989 43.0747Z" fill="#231F20"/>
<path d="M42.5689 102.993H18.0078V78.434C18.0322 78.2227 18.0117 78.0085 17.9475 77.8057C17.8833 77.6028 17.777 77.4159 17.6355 77.2571C17.4939 77.0982 17.3203 76.9709 17.1261 76.8839C16.932 76.7968 16.7217 76.7519 16.5089 76.7519C16.2961 76.7519 16.0856 76.7968 15.8915 76.8839C15.6973 76.9709 15.5239 77.0982 15.3823 77.2571C15.2408 77.4159 15.1345 77.6028 15.0703 77.8057C15.0061 78.0085 14.9856 78.2227 15.0101 78.434V104.501C15.0101 104.899 15.1678 105.28 15.4489 105.561C15.73 105.842 16.1114 106 16.5089 106H42.5789C42.9466 105.957 43.2861 105.781 43.5323 105.505C43.7785 105.229 43.9146 104.871 43.9146 104.501C43.9146 104.131 43.7785 103.774 43.5323 103.498C43.2861 103.221 42.9466 103.045 42.5789 103.003L42.5689 102.993Z" fill="#231F20"/>
</g>
<defs>
<clipPath id="clip0_1_32">
<rect width="92" height="92" fill="white" transform="translate(15 14)"/>
</clipPath>
</defs>
</svg>
