<svg width="121" height="120" viewBox="0 0 121 120" fill="none" xmlns="http://www.w3.org/2000/svg">
<g clip-path="url(#clip0_1_12)">
<path d="M58.4385 28.0849C58.4963 28.0068 58.5381 27.9177 58.5612 27.8232C58.5842 27.7286 58.5882 27.6304 58.5728 27.5343C58.5574 27.4382 58.523 27.3463 58.4716 27.2637C58.4203 27.1811 58.3529 27.1096 58.2736 27.0535C58.1933 26.9947 58.1023 26.9525 58.0057 26.929C57.9091 26.9055 57.8088 26.9013 57.7106 26.9167C57.6123 26.932 57.5183 26.9664 57.4334 27.0183C57.3485 27.0702 57.2746 27.1386 57.2159 27.2191C56.6033 28.0504 55.7698 28.6918 54.8107 29.0703C53.8515 29.4489 52.8056 29.5493 51.7923 29.3597L51.2587 29.2525C51.1618 29.2346 51.0624 29.2362 50.9661 29.2568C50.8698 29.2774 50.7786 29.3167 50.6975 29.3727C50.6164 29.4287 50.5471 29.5003 50.4935 29.5832C50.44 29.6661 50.4031 29.7588 50.3853 29.8559C50.3674 29.953 50.369 30.0527 50.3895 30.1493C50.4101 30.2459 50.4495 30.3374 50.5054 30.4187C50.5612 30.5 50.6324 30.5695 50.715 30.6232C50.7977 30.6769 50.8901 30.7136 50.987 30.7315L51.5206 30.8387C51.9497 30.9161 52.3847 30.9551 52.8206 30.9553C53.9161 30.9535 54.996 30.6927 55.9721 30.1939C56.9482 29.6952 57.7931 28.9727 58.4385 28.0849Z" fill="#231F20" stroke="#231F20" stroke-width="0.5" stroke-miterlimit="10"/>
<path d="M70.7124 29.1651L70.1787 29.272C69.1669 29.4608 68.1226 29.3603 67.1651 28.9817C66.2076 28.6031 65.3756 27.9619 64.7646 27.1314L64.1631 27.5789L63.5906 28.0654C64.2365 28.945 65.0801 29.6597 66.0527 30.1516C67.0253 30.6436 68.0997 30.8988 69.189 30.8968C69.6218 30.8966 70.0537 30.8576 70.4795 30.7802L71.013 30.6731C71.2085 30.6369 71.382 30.5244 71.4948 30.3602C71.6076 30.196 71.6507 29.9936 71.6146 29.7974C71.5786 29.6013 71.4664 29.4276 71.3027 29.3145C71.1389 29.2014 70.9371 29.1579 70.7415 29.1941L70.7124 29.1651Z" fill="#231F20" stroke="#231F20" stroke-width="0.5" stroke-miterlimit="10"/>
<path d="M67.4327 35.2465L67.3553 35.3242C66.5448 36.2048 65.5613 36.9076 64.4667 37.3883C63.3721 37.8689 62.19 38.1171 60.995 38.1171C59.8001 38.1171 58.6182 37.8689 57.5236 37.3883C56.429 36.9076 55.4455 36.2048 54.6351 35.3242L54.5671 35.2465C54.5105 35.1529 54.4342 35.0728 54.3435 35.012C54.2527 34.9512 54.1498 34.9109 54.0419 34.8942C53.934 34.8775 53.824 34.8847 53.7193 34.9153C53.6145 34.9459 53.5175 34.9992 53.4355 35.0714C53.3535 35.1436 53.2883 35.233 53.2443 35.3332C53.2004 35.4334 53.1789 35.5421 53.1813 35.6515C53.1837 35.7609 53.21 35.8684 53.2583 35.9665C53.3066 36.0646 53.3759 36.1511 53.4611 36.2195L53.5291 36.2972C54.4788 37.3337 55.6327 38.1613 56.9179 38.7274C58.2031 39.2934 59.5914 39.5856 60.995 39.5856C62.3987 39.5856 63.7873 39.2934 65.0724 38.7274C66.3576 38.1613 67.5115 37.3337 68.4613 36.2972L68.5292 36.2195C68.6177 36.1527 68.6903 36.0668 68.7417 35.9684C68.7931 35.87 68.8221 35.7616 68.8265 35.6506C68.8309 35.5396 68.8105 35.4289 68.7671 35.3268C68.7236 35.2246 68.6579 35.1334 68.575 35.0598C68.492 34.9861 68.3938 34.9319 68.2874 34.9011C68.181 34.8702 68.0691 34.8635 67.9598 34.8814C67.8504 34.8992 67.7463 34.9413 67.6551 35.0044C67.564 35.0675 67.4881 35.1503 67.4327 35.2465Z" fill="#231F20" stroke="#231F20" stroke-width="0.5" stroke-miterlimit="10"/>
<path d="M79.5319 19.8045C77.256 17.5252 74.1713 16.245 70.9549 16.245C67.7386 16.245 64.6536 17.5252 62.3778 19.8045L61.0001 21.1861L59.6124 19.8045C57.3389 17.5245 54.2554 16.2436 51.0402 16.2436C47.825 16.2436 44.7415 17.5245 42.468 19.8045C40.1945 22.0845 38.9172 25.1767 38.9172 28.4011C38.9172 31.6255 40.1945 34.7177 42.468 36.9977L60.4664 55.0473C60.6077 55.1898 60.7997 55.2703 61.0001 55.2711C61.0978 55.2704 61.1944 55.2503 61.2843 55.2119C61.3743 55.1735 61.4559 55.1175 61.524 55.0473L79.5319 36.9977C81.8017 34.7158 83.0765 31.6242 83.0765 28.4011C83.0765 25.1779 81.8017 22.0864 79.5319 19.8045ZM78.4647 35.9373L61.0001 53.4516L43.5354 35.9373C41.836 33.8849 40.962 31.27 41.0849 28.6052C41.2077 25.9403 42.3184 23.4174 44.1994 21.531C46.0804 19.6447 48.5961 18.5309 51.2534 18.4077C53.9107 18.2845 56.5182 19.1609 58.5647 20.8652L60.5052 22.8112C60.6478 22.9474 60.837 23.0233 61.0339 23.0233C61.2308 23.0233 61.4201 22.9474 61.5627 22.8112L63.5032 20.8652C64.4868 19.8614 65.6589 19.063 66.9519 18.516C68.2449 17.969 69.6331 17.6843 71.0364 17.6784C72.4397 17.6725 73.8303 17.9453 75.1278 18.4813C76.4254 19.0173 77.6042 19.8058 78.5962 20.8013C79.5882 21.7967 80.3738 22.9794 80.9074 24.281C81.4411 25.5825 81.7123 26.9772 81.7055 28.3845C81.6987 29.7918 81.4139 31.1838 80.8676 32.4801C80.3214 33.7764 79.5244 34.9515 78.5228 35.9373H78.4647Z" fill="#231F20" stroke="#231F20" stroke-width="0.5" stroke-miterlimit="10"/>
<path d="M35.7247 58.0637C35.1879 57.2279 34.4471 56.5434 33.5726 56.0751C32.6982 55.6068 31.7191 55.3703 30.7279 55.3879L25.0033 31.3735C24.7277 30.1345 23.9994 29.0438 22.9618 28.3165C21.9243 27.5891 20.6528 27.2779 19.3977 27.4439C18.1427 27.61 16.9951 28.2412 16.1811 29.2135C15.3672 30.1858 14.9456 31.4286 14.9998 32.697L16.1546 70.7714C16.2382 72.4668 16.6699 74.1266 17.4229 75.6469C18.1759 77.1672 19.2339 78.5151 20.5305 79.6063L40.3723 96.2255L41.7305 102.832C41.7509 102.981 41.8018 103.124 41.8795 103.253C41.9573 103.381 42.0604 103.493 42.1827 103.579C42.305 103.666 42.4437 103.727 42.5904 103.758C42.7371 103.789 42.8886 103.79 43.0355 103.76C43.1824 103.73 43.3214 103.67 43.4443 103.584C43.5672 103.498 43.6713 103.387 43.7499 103.259C43.8286 103.132 43.8803 102.989 43.9018 102.84C43.9232 102.691 43.914 102.54 43.8748 102.395L42.4388 95.4081C42.3926 95.1636 42.2622 94.9432 42.0702 94.7855L21.9373 77.9132C20.8761 77.0199 20.0094 75.917 19.3918 74.6732C18.7742 73.4294 18.4188 72.0714 18.3474 70.6837L17.1926 32.6288C17.2277 31.9474 17.4996 31.2999 17.9613 30.7987C18.423 30.2974 19.0451 29.9741 19.7197 29.885C20.3942 29.796 21.0788 29.9468 21.654 30.3112C22.2293 30.6756 22.6591 31.2304 22.8687 31.8795L28.5835 55.8549C27.26 56.4154 26.1899 57.4468 25.5791 58.7509C24.9683 60.055 24.8601 61.5397 25.275 62.919C26.9535 68.4653 30.4465 76.0451 37.5003 80.6961C37.6207 80.7754 37.7554 80.83 37.8969 80.857C38.0383 80.884 38.1837 80.8828 38.3247 80.8534C38.4657 80.824 38.5995 80.7669 38.7186 80.6857C38.8377 80.6045 38.9397 80.5007 39.0187 80.38C39.0977 80.2592 39.1522 80.1239 39.1791 79.9821C39.206 79.8402 39.2048 79.6944 39.1755 79.553C39.1463 79.4116 39.0895 79.2774 39.0085 79.158C38.9275 79.0386 38.8238 78.9362 38.7034 78.857C32.193 74.566 28.9522 67.4727 27.3706 62.3157C27.1091 61.4754 27.161 60.5686 27.5166 59.7639C27.8721 58.9591 28.5072 58.3115 29.3036 57.9413C30.0999 57.5712 31.0032 57.5037 31.8453 57.7518C32.6874 57.9998 33.411 58.5465 33.8813 59.2897C38.8296 66.9182 48.1732 75.8311 53.2865 80.4626C55.1008 82.107 57.1675 87.4974 55.227 90.543C55.0705 90.7845 55.0146 91.0781 55.0716 91.3604L56.7987 99.738C56.8219 99.885 56.8745 100.026 56.9536 100.152C57.0327 100.278 57.1366 100.387 57.2587 100.471C57.3808 100.556 57.5187 100.615 57.6642 100.644C57.8097 100.674 57.9597 100.673 58.1051 100.643C58.2504 100.612 58.388 100.553 58.5097 100.468C58.6313 100.382 58.7345 100.273 58.8129 100.147C58.8912 100.02 58.9431 99.8792 58.9654 99.7321C58.9878 99.5849 58.9801 99.4345 58.9429 99.2904L57.2935 91.3312C59.4669 87.3418 57.3616 81.1922 54.7419 78.8278C49.7256 74.2351 40.5275 65.4781 35.7247 58.0637Z" fill="#231F20"/>
<path d="M106.321 70.6935L106.99 32.6385C107.023 31.3741 106.584 30.1429 105.759 29.1859C104.935 28.2289 103.784 27.615 102.531 27.4641C101.279 27.3132 100.016 27.6363 98.9887 28.3702C97.9614 29.104 97.244 30.1958 96.9771 31.432L91.5535 55.524C90.5634 55.5193 89.5884 55.768 88.7209 56.2464C87.8533 56.7248 87.1217 57.4173 86.5954 58.2582C81.8896 65.7116 72.7984 74.5953 67.8015 79.2269C65.211 81.6205 63.1734 87.7991 65.3953 91.769L63.8622 99.7477C63.8341 99.889 63.8342 100.035 63.8625 100.176C63.8907 100.317 63.9466 100.451 64.0269 100.571C64.1072 100.69 64.2103 100.792 64.3303 100.872C64.4503 100.951 64.5845 101.005 64.7257 101.032C65.0111 101.087 65.3064 101.027 65.5479 100.864C65.7893 100.702 65.9576 100.452 66.0162 100.166L67.6364 91.769C67.6846 91.4855 67.6259 91.1943 67.4716 90.9518C65.4728 87.9355 67.4717 82.5156 69.2861 80.842C74.3702 76.1423 83.6168 67.103 88.4487 59.4356C88.8356 58.813 89.4013 58.3228 90.0716 58.0292C90.7419 57.7357 91.4852 57.6527 92.2035 57.7912C92.6981 57.8875 93.1675 58.0862 93.5814 58.3744C93.9953 58.6626 94.3447 59.0341 94.6076 59.4653C94.8704 59.8964 95.0409 60.3776 95.1081 60.8785C95.1753 61.3793 95.1379 61.8886 94.9979 62.3741C93.4843 67.5798 90.3308 74.7119 83.8689 79.0905C83.6283 79.2544 83.4625 79.5074 83.4079 79.7939C83.3533 80.0804 83.4146 80.377 83.578 80.6182C83.7414 80.8595 83.9937 81.0258 84.2794 81.0805C84.5651 81.1353 84.8605 81.0741 85.1011 80.9102C92.1064 76.1716 95.4927 68.5432 97.1033 62.9872C97.5046 61.6011 97.3797 60.115 96.7525 58.8158C96.1254 57.5166 95.0405 56.4963 93.7074 55.9521L99.1216 31.9088C99.3229 31.2564 99.746 30.6957 100.317 30.3238C100.888 29.9519 101.571 29.7926 102.247 29.8736C102.924 29.9546 103.55 30.2708 104.018 30.7671C104.485 31.2634 104.765 31.9083 104.807 32.5898L104.128 70.635C104.078 72.028 103.741 73.3954 103.138 74.6514C102.535 75.9073 101.68 77.0245 100.625 77.9327L80.7058 95.058C80.5199 95.2193 80.3936 95.4385 80.3469 95.6806L78.9984 102.686C78.971 102.828 78.9717 102.974 79.0005 103.116C79.0293 103.257 79.0855 103.392 79.1661 103.511C79.2467 103.631 79.3503 103.734 79.4705 103.813C79.5907 103.893 79.7251 103.948 79.8665 103.976C80.008 104.003 80.1534 104.002 80.2946 103.973C80.4357 103.944 80.5698 103.888 80.6892 103.807C80.8086 103.726 80.9111 103.623 80.9905 103.502C81.07 103.382 81.1249 103.247 81.1523 103.105L82.4232 96.4785L102.052 79.6063C103.337 78.4958 104.38 77.1308 105.115 75.5971C105.849 74.0633 106.26 72.3939 106.321 70.6935Z" fill="#231F20"/>
</g>
<defs>
<clipPath id="clip0_1_12">
<rect width="92" height="88" fill="white" transform="translate(15 16)"/>
</clipPath>
</defs>
</svg>
