<svg width="121" height="120" viewBox="0 0 121 120" fill="none" xmlns="http://www.w3.org/2000/svg">
<g clip-path="url(#clip0_1_58)">
<path d="M91.2974 56.1583C90.0695 56.1463 88.8692 56.5247 87.8692 57.239C87.5637 55.9975 86.8495 54.8953 85.8421 54.1109C84.8347 53.3265 83.5931 52.9057 82.3176 52.9162C80.9253 52.9118 79.5781 53.4104 78.523 54.3209C78.0535 53.3438 77.317 52.5203 76.3991 51.9463C75.4811 51.3724 74.4195 51.0716 73.3377 51.0788C72.1827 51.0864 71.0564 51.4401 70.1037 52.0946V20.4087C70.1008 18.7099 69.4264 17.0813 68.2282 15.8801C67.03 14.6788 65.4057 14.0028 63.7112 13.9999H31.4357C29.7422 14.0028 28.1189 14.6791 26.9224 15.8806C25.7259 17.0821 25.054 18.7109 25.054 20.4087V88.7629C25.0569 90.4588 25.7301 92.0844 26.9263 93.2836C28.1225 94.4828 29.7441 95.1577 31.4357 95.1606H55.5182L58.7522 97.5811V104.779C58.7522 104.938 58.7837 105.095 58.8443 105.242C58.905 105.389 58.9938 105.522 59.106 105.635C59.2181 105.747 59.3511 105.836 59.4976 105.897C59.6441 105.958 59.8012 105.989 59.9597 105.989C60.1183 105.989 60.2754 105.958 60.4219 105.897C60.5684 105.836 60.7014 105.747 60.8135 105.635C60.9256 105.522 61.0144 105.389 61.0751 105.242C61.1358 105.095 61.1672 104.938 61.1672 104.779V97.0302C61.1673 96.8426 61.1244 96.6573 61.0422 96.4888C60.96 96.3202 60.8404 96.1729 60.6927 96.0577L55.8848 92.405C54.041 90.9985 52.5926 89.1368 51.6807 87.0015L42.2266 67.7109C42.7115 67.2835 43.3277 67.0357 43.9728 67.0086C46.1288 66.9113 48.6839 67.3432 50.8722 71.7092C53.6642 77.2532 56.8765 78.3774 58.7522 78.4963V83.7378C58.7522 83.8967 58.7837 84.0537 58.8443 84.2006C58.905 84.3474 58.9938 84.4813 59.106 84.5937C59.2181 84.7061 59.3511 84.7951 59.4976 84.8559C59.6441 84.9168 59.8012 84.9478 59.9597 84.9478C60.1183 84.9478 60.2754 84.9168 60.4219 84.8559C60.5684 84.7951 60.7014 84.7061 60.8135 84.5937C60.9256 84.4813 61.0144 84.3474 61.0751 84.2006C61.1358 84.0537 61.1672 83.8967 61.1672 83.7378V40.9309C61.1672 40.0581 61.513 39.2214 62.1286 38.6043C62.7442 37.9872 63.5791 37.6402 64.4497 37.6402C65.3202 37.6402 66.1551 37.9872 66.7707 38.6043C67.3863 39.2214 67.7321 40.0581 67.7321 40.9309V69.6887C67.7321 69.8476 67.7633 70.0046 67.824 70.1515C67.8846 70.2983 67.9737 70.4322 68.0858 70.5446C68.1979 70.657 68.331 70.746 68.4774 70.8069C68.6239 70.8677 68.781 70.8987 68.9396 70.8987C69.0982 70.8987 69.255 70.8677 69.4015 70.8069C69.548 70.746 69.6813 70.657 69.7934 70.5446C69.9055 70.4322 69.9943 70.2983 70.055 70.1515C70.1157 70.0046 70.1468 69.8476 70.1468 69.6887V56.7203C70.1468 55.8475 70.4927 55.0103 71.1082 54.3932C71.7238 53.7761 72.559 53.4291 73.4295 53.4291C74.3001 53.4291 75.135 53.7761 75.7506 54.3932C76.3662 55.0103 76.712 55.8475 76.712 56.7203V71.6015C76.712 71.9226 76.839 72.2299 77.0654 72.4569C77.2919 72.6839 77.599 72.8115 77.9192 72.8115C78.2394 72.8115 78.5466 72.6839 78.773 72.4569C78.9994 72.2299 79.1267 71.9226 79.1267 71.6015V58.6331C79.1267 57.7604 79.4725 56.9232 80.0881 56.306C80.7037 55.6889 81.5386 55.342 82.4091 55.342C83.2797 55.342 84.1146 55.6889 84.7302 56.306C85.3458 56.9232 85.6918 57.7604 85.6918 58.6331V73.2548C85.6918 73.5758 85.8189 73.8837 86.0453 74.1107C86.2717 74.3377 86.5789 74.4653 86.8991 74.4653C87.2193 74.4653 87.5264 74.3377 87.7529 74.1107C87.9793 73.8837 88.1066 73.5758 88.1066 73.2548V61.7671C88.1066 60.8943 88.4524 60.0571 89.068 59.44C89.6836 58.8228 90.5184 58.4764 91.389 58.4764C92.2596 58.4764 93.0945 58.8228 93.71 59.44C94.3256 60.0571 94.6715 60.8943 94.6715 61.7671V88.3846C94.6721 89.2402 94.5039 90.0878 94.1764 90.8779C93.8489 91.668 93.3687 92.3849 92.7634 92.9881L90.6074 95.1495C90.3846 95.3774 90.2608 95.6843 90.2626 96.0033V104.757C90.2626 105.078 90.3896 105.386 90.616 105.613C90.8425 105.84 91.1496 105.968 91.4698 105.968C91.79 105.968 92.0972 105.84 92.3236 105.613C92.55 105.386 92.6773 105.078 92.6773 104.757V96.5115L94.4667 94.7173C95.2968 93.8887 95.9546 92.9034 96.4024 91.8182C96.8502 90.7331 97.079 89.5695 97.0754 88.3951V61.6911C97.0629 60.9461 96.9031 60.2112 96.6051 59.5286C96.3071 58.846 95.8766 58.2297 95.3392 57.715C94.8017 57.2003 94.1678 56.7975 93.474 56.5303C92.7801 56.2631 92.0404 56.1367 91.2974 56.1583ZM31.3818 16.4315H63.6572C64.7103 16.4315 65.7205 16.85 66.4662 17.5956C67.2119 18.3411 67.6324 19.3529 67.6353 20.4087V22.4619H27.4148V20.3759C27.4233 19.3268 27.845 18.3238 28.5881 17.585C29.3311 16.8462 30.3352 16.4315 31.3818 16.4315ZM52.5645 92.7396H31.3818C30.3297 92.7396 29.3207 92.3208 28.5768 91.575C27.8328 90.8291 27.4148 89.8177 27.4148 88.7629V81.9869H40.6743C40.5083 82.414 40.4239 82.8684 40.4261 83.3267C40.429 84.3261 40.8263 85.2838 41.5313 85.9905C42.2362 86.6972 43.1917 87.0958 44.1886 87.0986H48.9102L49.3413 87.9846C50.1196 89.7426 51.2119 91.3433 52.5645 92.7074V92.7396ZM46.4739 81.9869L47.7782 84.667H44.1886C43.8341 84.667 43.494 84.5257 43.2433 84.2744C42.9926 84.0231 42.8517 83.6821 42.8517 83.3267C42.8517 82.9713 42.9926 82.6308 43.2433 82.3795C43.494 82.1282 43.8341 81.9869 44.1886 81.9869H46.4739ZM64.3473 35.3654C62.8595 35.3452 61.4246 35.9174 60.3574 36.9569C59.2902 37.9963 58.6781 39.4178 58.6554 40.9092V76.0431C57.448 75.9134 55.1626 75.0272 52.9419 70.6396C50.7212 66.2519 47.789 64.339 43.7249 64.6092C43.0197 64.6387 42.3289 64.8187 41.6986 65.1374C41.0684 65.4561 40.5134 65.9061 40.0706 66.4571C39.8749 66.7655 39.7603 67.1187 39.7376 67.4835C39.715 67.8482 39.785 68.2128 39.9411 68.5431L45.3311 79.5986H27.4472V24.9584H67.6674V36.4244C66.6954 35.738 65.5363 35.3682 64.3473 35.3654Z" fill="#010101"/>
<path d="M44.0483 20.3005H51.0014C51.3216 20.3005 51.6288 20.1729 51.8552 19.9459C52.0816 19.7189 52.2089 19.411 52.2089 19.09C52.2089 18.769 52.0816 18.4611 51.8552 18.2341C51.6288 18.0071 51.3216 17.8795 51.0014 17.8795H44.0483C43.7281 17.8795 43.421 18.0071 43.1946 18.2341C42.9682 18.4611 42.8411 18.769 42.8411 19.09C42.8411 19.411 42.9682 19.7189 43.1946 19.9459C43.421 20.1729 43.7281 20.3005 44.0483 20.3005Z" fill="#010101"/>
</g>
<defs>
<clipPath id="clip0_1_58">
<rect width="72" height="92" fill="white" transform="translate(25 14)"/>
</clipPath>
</defs>
</svg>
