<svg width="121" height="120" viewBox="0 0 121 120" fill="none" xmlns="http://www.w3.org/2000/svg">
<g clip-path="url(#clip0_1_62)">
<path d="M52.2019 77.0966C52.0638 76.6672 51.7918 76.2928 51.4254 76.0274C51.0589 75.7619 50.6169 75.6193 50.1636 75.6202H37.5462C37.2101 75.621 36.8787 75.6998 36.5787 75.8506C36.2787 76.0015 36.0184 76.22 35.8186 76.4887C35.6143 76.7618 35.4795 77.0796 35.4255 77.4156C35.3714 77.7517 35.3996 78.0961 35.5079 78.4189L38.1867 86.7187C38.3231 87.15 38.5945 87.5263 38.9611 87.7936C39.3276 88.0609 39.7704 88.2048 40.225 88.2045H52.8423C53.1792 88.2036 53.5112 88.124 53.8112 87.9718C54.1113 87.8195 54.3713 87.5992 54.5697 87.3285C54.7682 87.0578 54.8998 86.7445 54.9538 86.4139C55.0079 86.0832 54.9828 85.7444 54.8806 85.4252L52.2019 77.0966ZM52.9395 86.1297C52.9279 86.1444 52.9132 86.1567 52.8964 86.165C52.8796 86.1734 52.8611 86.1779 52.8423 86.1782H40.225C40.1985 86.1791 40.1727 86.1709 40.1515 86.1551C40.1304 86.1394 40.115 86.1165 40.1084 86.0911L37.4299 77.7818C37.4194 77.766 37.4137 77.7474 37.4137 77.7285C37.4137 77.7096 37.4194 77.6915 37.4299 77.6757C37.4402 77.6598 37.4545 77.647 37.4716 77.6385C37.4886 77.63 37.5077 77.6259 37.5268 77.6272H50.1441C50.169 77.6272 50.1933 77.6347 50.214 77.6484C50.2348 77.6621 50.2511 77.6816 50.2607 77.7045L52.9395 86.0138C52.9475 86.032 52.9516 86.0518 52.9516 86.0717C52.9516 86.0917 52.9475 86.1114 52.9395 86.1297Z" fill="#231F20"/>
<path d="M97.4887 56.7817C95.0847 55.1364 92.3763 53.9817 89.5204 53.3846C93.2486 51.7765 96.3099 48.9464 98.1941 45.366C100.078 41.7857 100.672 37.6712 99.8748 33.7086C99.0781 29.7461 96.9394 26.1746 93.8156 23.5898C90.6919 21.005 86.7716 19.5632 82.7082 19.5042C78.6447 19.4451 74.6837 20.7726 71.4853 23.2656C68.2869 25.7585 66.0444 29.2662 65.1316 33.2039C64.2188 37.1416 64.6907 41.2716 66.4689 44.9052C68.2471 48.5388 71.2241 51.4564 74.9036 53.172C67.7796 54.7451 63.4995 61.4427 62.4125 63.3536C62.1808 63.3231 61.9472 63.3072 61.7135 63.3055H19.7851C19.0329 63.3048 18.2913 63.4807 17.6205 63.8191C16.9497 64.1575 16.3688 64.6487 15.9251 65.2526C15.4814 65.8566 15.1875 66.5562 15.0673 67.2945C14.9471 68.0328 15.0039 68.789 15.2332 69.5013L24.1623 97.1996C24.4711 98.1586 25.0784 98.995 25.8966 99.5883C26.7148 100.182 27.7016 100.501 28.7142 100.5H101.507C102.991 100.462 104.4 99.8403 105.425 98.7711C106.449 97.702 107.005 96.2725 106.971 94.7963V76.3149C107 65.5927 101.827 59.7735 97.4887 56.7817ZM66.6829 37.1708C66.6829 34.0709 67.6072 31.0407 69.3392 28.4633C71.0711 25.8859 73.5329 23.8769 76.413 22.6907C79.2931 21.5044 82.4623 21.1943 85.5199 21.7991C88.5774 22.4038 91.3859 23.8964 93.5903 26.0883C95.7947 28.2802 97.2959 31.0731 97.9041 34.1134C98.5122 37.1537 98.2002 40.3048 97.0072 43.1687C95.8142 46.0325 93.7938 48.4801 91.2018 50.2023C88.6098 51.9245 85.5623 52.8441 82.4449 52.8441C78.2661 52.839 74.26 51.1858 71.3052 48.2476C68.3503 45.3095 66.688 41.326 66.6829 37.1708ZM32.4122 98.4926H28.7142C28.1265 98.4905 27.5548 98.3025 27.0819 97.9554C26.6089 97.6084 26.2593 97.1203 26.084 96.5625L17.1549 68.8741C17.022 68.4619 16.9887 68.0243 17.058 67.597C17.1272 67.1697 17.2969 66.7645 17.5532 66.4147C17.8095 66.0649 18.1452 65.7804 18.533 65.5839C18.9208 65.3874 19.3498 65.2843 19.7851 65.2837H61.7135C62.3007 65.2834 62.8726 65.471 63.3445 65.8186C63.8163 66.1662 64.1635 66.6552 64.3342 67.2139L73.2634 94.9122C73.3966 95.3238 73.43 95.7609 73.3608 96.1878C73.2916 96.6147 73.1218 97.0196 72.8653 97.3687C72.6088 97.7179 72.2727 98.0018 71.8848 98.1972C71.4968 98.3925 71.0681 98.4936 70.6332 98.4926H32.4122ZM104.981 94.7963C105.016 95.7402 104.672 96.6595 104.027 97.3522C103.381 98.045 102.485 98.455 101.536 98.4926H74.5349C74.9678 97.8931 75.2522 97.2005 75.3652 96.471C75.4782 95.7416 75.4165 94.9957 75.1851 94.2944L73.6418 89.4689H95.4601C95.7175 89.4689 95.9646 89.3672 96.1466 89.1862C96.3286 89.0052 96.4307 88.7598 96.4307 88.5039V76.6815C96.4307 76.4153 96.3245 76.1601 96.1352 75.9718C95.9459 75.7836 95.6892 75.6778 95.4215 75.6778C95.1538 75.6778 94.8968 75.7836 94.7075 75.9718C94.5182 76.1601 94.4121 76.4153 94.4121 76.6815V87.4521H72.9819L66.2462 66.5674C65.9115 65.5273 65.2258 64.6345 64.3051 64.0392C65.6639 61.8002 70.4876 54.8129 77.893 54.8129H84.2503C88.5353 54.7576 92.7348 56.0069 96.2852 58.3933C102.021 62.3502 104.923 68.3625 104.923 76.2762L104.981 94.7963Z" fill="#231F20"/>
</g>
<defs>
<clipPath id="clip0_1_62">
<rect width="92" height="81" fill="white" transform="translate(15 19.5)"/>
</clipPath>
</defs>
</svg>
